<svg xmlns="http://www.w3.org/2000/svg" version="1.1" xmlns:xlink="http://www.w3.org/1999/xlink" xmlns:svgjs="http://svgjs.com/svgjs" width="2592" height="2592"><svg version="1.1" id="SvgjsSvg1000" xmlns="http://www.w3.org/2000/svg" xmlns:xlink="http://www.w3.org/1999/xlink" x="0px" y="0px" viewBox="0 0 2592 2592" style="enable-background:new 0 0 2592 2592;" xml:space="preserve">
<style type="text/css">
	.st0{fill:#FFFFFF;}
</style>
<rect y="-4.1" width="2600" height="2598.4"></rect>
<path class="st0" d="M1301.4,730.8c-232.5,0-422.9,174.4-455,402.9h-84.2c-32.1,0-52.1,22-52.1,52.1c0,32.1,22,52.1,52.1,52.1h100.2
	v328.7c0,242.5,196.4,439,439,439s439-196.4,439-439v-326.7h100.2c32.1,0,52.1-22,52.1-52.1c0-32.1-22-52.1-52.1-52.1h-84.2
	C1730.3,905.2,1533.9,730.8,1301.4,730.8z M968.6,1239.9h661.5v254.6H968.6C968.6,1494.5,968.6,1239.9,968.6,1239.9z M1121,1302.1
	c-32.1,0-52.1,22-52.1,52.1s22,52.1,52.1,52.1h32.1c32.1,0,52.1-22,52.1-52.1s-22-52.1-52.1-52.1H1121z M1449.7,1302.1
	c-32.1,0-52.1,22-52.1,52.1s22,52.1,52.1,52.1h32.1c32.1,0,52.1-22,52.1-52.1s-22-52.1-52.1-52.1H1449.7z"></path>
<path class="st0" d="M1301.4,137.5c-18,0-36.1,4-52.1,10L553.7,418.1c-40.1,16-64.1,46.1-64.1,80.2v52.1
	c0,50.1,52.1,90.2,116.3,90.2h1391.1c64.1,0,116.3-40.1,116.3-90.2v-52.1c0-34.1-24.1-66.1-64.1-80.2l-695.5-270.6
	C1337.4,141.5,1319.4,137.5,1301.4,137.5z"></path>
<path class="st0" d="M1974.8,2274.2h-1347c-58.1,0-106.2-48.1-106.2-106.2l0,0c0-58.1,48.1-106.2,106.2-106.2h1349
	c58.1,0,106.2,48.1,106.2,106.2l0,0C2083.1,2226.1,2035,2274.2,1974.8,2274.2z"></path>
</svg><style>@media (prefers-color-scheme: light) { :root { filter: none; } }
@media (prefers-color-scheme: dark) { :root { filter: none; } }
</style></svg>