<svg xmlns="http://www.w3.org/2000/svg" version="1.1" xmlns:xlink="http://www.w3.org/1999/xlink" xmlns:svgjs="http://svgjs.com/svgjs" width="2592" height="2592"><svg version="1.1" id="SvgjsSvg1000" xmlns="http://www.w3.org/2000/svg" xmlns:xlink="http://www.w3.org/1999/xlink" x="0px" y="0px" viewBox="0 0 2592 2592" style="enable-background:new 0 0 2592 2592;" xml:space="preserve">
<style type="text/css">
	.st0{fill:#FFFFFF;}
</style>
<rect y="-4.1" width="2600" height="2598.4"></rect>
<path class="st0" d="M1310.7,91.4c-439.6,0-799.6,329.7-860.3,761.8H291.2c-60.7,0-98.5,41.6-98.5,98.5c0,60.7,41.6,98.5,98.5,98.5
	h189.4v621.5c0,458.5,371.3,830,830,830s830-371.3,830-830v-617.7h189.4c60.7,0,98.5-41.6,98.5-98.5c0-60.7-41.6-98.5-98.5-98.5
	h-159.2C2121.6,421.1,1750.3,91.4,1310.7,91.4z M681.4,1053.9h1250.7v481.4H681.4V1053.9z M969.6,1171.5
	c-60.7,0-98.5,41.6-98.5,98.5c0,56.9,41.6,98.5,98.5,98.5h60.7c60.7,0,98.5-41.6,98.5-98.5c0-56.9-41.6-98.5-98.5-98.5H969.6z
	 M1591.1,1171.5c-60.7,0-98.5,41.6-98.5,98.5c0,56.9,41.6,98.5,98.5,98.5h60.7c60.7,0,98.5-41.6,98.5-98.5
	c0-56.9-41.6-98.5-98.5-98.5H1591.1z"></path>
</svg><style>@media (prefers-color-scheme: light) { :root { filter: none; } }
</style></svg>