<?xml version="1.0" encoding="utf-8"?>
<!-- Generator: Adobe Illustrator 26.2.1, SVG Export Plug-In . SVG Version: 6.00 Build 0)  -->
<svg version="1.1" id="Layer_1" xmlns="http://www.w3.org/2000/svg" xmlns:xlink="http://www.w3.org/1999/xlink" x="0px" y="0px"
	 viewBox="0 0 607.6 106.6" style="enable-background:new 0 0 607.6 106.6;" xml:space="preserve">
<style type="text/css">
	.st0{fill:#FFFFFF;}
</style>
<path class="st0" d="M40.5,29.6c-11.6,0-21.1,8.7-22.7,20.1h-4.2c-1.6,0-2.6,1.1-2.6,2.6c0,1.6,1.1,2.6,2.6,2.6h5v16.4
	c0,12.1,9.8,21.9,21.9,21.9s21.9-9.8,21.9-21.9V55h5c1.6,0,2.6-1.1,2.6-2.6c0-1.6-1.1-2.6-2.6-2.6h-4.2
	C61.9,38.3,52.1,29.6,40.5,29.6z M23.9,55h33v12.7h-33V55z M31.5,58.1c-1.6,0-2.6,1.1-2.6,2.6s1.1,2.6,2.6,2.6h1.6
	c1.6,0,2.6-1.1,2.6-2.6s-1.1-2.6-2.6-2.6H31.5z M47.9,58.1c-1.6,0-2.6,1.1-2.6,2.6s1.1,2.6,2.6,2.6h1.6c1.6,0,2.6-1.1,2.6-2.6
	s-1.1-2.6-2.6-2.6H47.9z"/>
<path class="st0" d="M40.5,0c-0.9,0-1.8,0.2-2.6,0.5L3.2,14c-2,0.8-3.2,2.3-3.2,4v2.6c0,2.5,2.6,4.5,5.8,4.5h69.4
	c3.2,0,5.8-2,5.8-4.5V18c0-1.7-1.2-3.3-3.2-4L43.1,0.5C42.3,0.2,41.4,0,40.5,0z"/>
<path class="st0" d="M74.1,106.6H6.9c-2.9,0-5.3-2.4-5.3-5.3v0c0-2.9,2.4-5.3,5.3-5.3h67.3c2.9,0,5.3,2.4,5.3,5.3v0
	C79.5,104.2,77.1,106.6,74.1,106.6z"/>
<g>
	<path class="st0" d="M101.9,39.4c2.6-0.5,7.8-0.9,12.7-0.9c6,0,9.6,0.6,12.8,2.4c3,1.6,5.2,4.6,5.2,8.5c0,3.9-2.2,7.5-7.1,9.3v0.1
		c4.9,1.3,8.6,5.1,8.6,10.7c0,3.9-1.8,7-4.5,9.2c-3.1,2.5-8.4,3.9-17,3.9c-4.8,0-8.4-0.3-10.6-0.6V39.4z M111.6,56h3.2
		c5.1,0,7.9-2.1,7.9-5.3c0-3.3-2.5-5-6.9-5c-2.1,0-3.3,0.1-4.2,0.3V56z M111.6,75.2c1,0.1,2.1,0.1,3.8,0.1c4.4,0,8.4-1.7,8.4-6.2
		c0-4.4-3.9-6.1-8.8-6.1h-3.3V75.2z"/>
	<path class="st0" d="M158.5,82.1l-0.6-3.1h-0.2c-2.1,2.5-5.3,3.9-9,3.9c-6.4,0-10.2-4.6-10.2-9.6c0-8.2,7.3-12.1,18.4-12v-0.4
		c0-1.7-0.9-4-5.7-4c-3.2,0-6.6,1.1-8.7,2.4l-1.8-6.3c2.2-1.2,6.5-2.8,12.2-2.8c10.5,0,13.8,6.2,13.8,13.6v10.9c0,3,0.1,5.9,0.5,7.6
		H158.5z M157.3,67.3c-5.1-0.1-9.1,1.2-9.1,4.9c0,2.5,1.7,3.7,3.9,3.7c2.4,0,4.4-1.6,5.1-3.6c0.1-0.5,0.2-1.1,0.2-1.7V67.3z"/>
	<path class="st0" d="M174.6,60.7c0-3.9-0.1-7.3-0.3-10h8.5l0.4,4.3h0.2c1.3-2,4.5-5,9.7-5c6.4,0,11.2,4.2,11.2,13.5v18.6h-9.8V64.7
		c0-4-1.4-6.8-4.9-6.8c-2.7,0-4.3,1.9-4.9,3.7c-0.3,0.6-0.4,1.5-0.4,2.4v18.1h-9.8V60.7z"/>
	<path class="st0" d="M222,64h0.1c0.7-1.3,1.5-2.6,2.2-3.8l6.4-9.4h11.8l-11.2,12.7l12.9,18.7h-12l-7.6-12.9l-2.5,3.1v9.8h-9.8V36.5
		h9.8V64z"/>
	<path class="st0" d="M291.1,66.1c0,11.5-8.2,16.8-16.6,16.8c-9.2,0-16.3-6-16.3-16.2c0-10.2,6.7-16.6,16.8-16.6
		C284.7,50,291.1,56.6,291.1,66.1z M268.3,66.4c0,5.4,2.2,9.4,6.4,9.4c3.8,0,6.2-3.8,6.2-9.4c0-4.7-1.8-9.4-6.2-9.4
		C270.1,56.9,268.3,61.8,268.3,66.4z"/>
	<path class="st0" d="M298.2,82.1V57.9h-4.1v-7.2h4.1v-1.2c0-3.8,1.2-8,4-10.5c2.4-2.3,5.8-3.1,8.7-3.1c2.2,0,3.9,0.3,5.2,0.6
		l-0.4,7.5c-0.8-0.3-1.9-0.5-3.1-0.5c-3.2,0-4.6,2.5-4.6,5.6v1.6h6.3v7.2h-6.2v24.2H298.2z"/>
	<path class="st0" d="M342.2,38.8v16.6h16.1V38.8h9.8v43.3h-9.8V64h-16.1v18.1h-9.8V38.8H342.2z"/>
	<path class="st0" d="M394.2,82.1l-0.6-3.1h-0.2c-2.1,2.5-5.3,3.9-9,3.9c-6.4,0-10.2-4.6-10.2-9.6c0-8.2,7.3-12.1,18.4-12v-0.4
		c0-1.7-0.9-4-5.7-4c-3.2,0-6.6,1.1-8.7,2.4l-1.8-6.3c2.2-1.2,6.5-2.8,12.2-2.8c10.5,0,13.8,6.2,13.8,13.6v10.9c0,3,0.1,5.9,0.5,7.6
		H394.2z M393,67.3c-5.1-0.1-9.1,1.2-9.1,4.9c0,2.5,1.7,3.7,3.9,3.7c2.4,0,4.4-1.6,5.1-3.6c0.1-0.5,0.2-1.1,0.2-1.7V67.3z"/>
	<path class="st0" d="M433.8,81.4c-1.7,0.8-5,1.4-8.7,1.4c-10.2,0-16.6-6.2-16.6-16.1c0-9.2,6.3-16.7,18-16.7c2.6,0,5.4,0.4,7.5,1.2
		l-1.5,7.3c-1.2-0.5-2.9-1-5.5-1c-5.1,0-8.5,3.7-8.4,8.8c0,5.8,3.9,8.8,8.6,8.8c2.3,0,4.1-0.4,5.6-1L433.8,81.4z"/>
	<path class="st0" d="M449,64h0.1c0.7-1.3,1.5-2.6,2.2-3.8l6.4-9.4h11.8l-11.2,12.7l12.9,18.7h-12l-7.6-12.9l-2.5,3.1v9.8h-9.8V36.5
		h9.8V64z"/>
	<path class="st0" d="M484.8,42c0,2.7-2.1,4.9-5.3,4.9c-3.1,0-5.1-2.2-5.1-4.9c-0.1-2.8,2-4.9,5.1-4.9C482.8,37,484.8,39.1,484.8,42
		z M474.7,82.1V50.7h9.8v31.4H474.7z"/>
	<path class="st0" d="M492.3,73.6c1.8,1.1,5.5,2.4,8.4,2.4c3,0,4.2-1,4.2-2.6c0-1.6-1-2.4-4.6-3.6c-6.5-2.2-9-5.7-8.9-9.4
		c0-5.8,5-10.3,12.8-10.3c3.7,0,6.9,0.8,8.9,1.8l-1.7,6.7c-1.4-0.8-4.1-1.8-6.8-1.8c-2.4,0-3.7,1-3.7,2.6c0,1.5,1.2,2.2,5.1,3.6
		c6,2.1,8.5,5.1,8.5,9.7c0,5.8-4.6,10.2-13.6,10.2c-4.1,0-7.8-0.9-10.2-2.2L492.3,73.6z"/>
	<path class="st0" d="M531.2,41.7v9h7v7.2h-7v11.4c0,3.8,0.9,5.5,3.9,5.5c1.2,0,2.2-0.1,2.9-0.3L538,82c-1.3,0.5-3.6,0.8-6.4,0.8
		c-3.1,0-5.8-1.1-7.3-2.7c-1.8-1.9-2.7-4.9-2.7-9.3V57.9h-4.2v-7.2h4.2v-6.8L531.2,41.7z"/>
	<path class="st0" d="M561.7,82.1l-0.6-3.1h-0.2c-2.1,2.5-5.3,3.9-9,3.9c-6.4,0-10.2-4.6-10.2-9.6c0-8.2,7.3-12.1,18.4-12v-0.4
		c0-1.7-0.9-4-5.7-4c-3.2,0-6.6,1.1-8.7,2.4l-1.8-6.3c2.2-1.2,6.5-2.8,12.2-2.8c10.5,0,13.8,6.2,13.8,13.6v10.9c0,3,0.1,5.9,0.5,7.6
		H561.7z M560.5,67.3c-5.1-0.1-9.1,1.2-9.1,4.9c0,2.5,1.7,3.7,3.9,3.7c2.4,0,4.4-1.6,5.1-3.6c0.1-0.5,0.2-1.1,0.2-1.7V67.3z"/>
	<path class="st0" d="M577.8,60.7c0-3.9-0.1-7.3-0.3-10h8.5l0.4,4.3h0.2c1.3-2,4.5-5,9.7-5c6.4,0,11.2,4.2,11.2,13.5v18.6h-9.8V64.7
		c0-4-1.4-6.8-4.9-6.8c-2.7,0-4.3,1.9-4.9,3.7c-0.3,0.6-0.4,1.5-0.4,2.4v18.1h-9.8V60.7z"/>
</g>
</svg>
